<svg xmlns="http://www.w3.org/2000/svg" viewBox="0 0 210.09 219.94"><defs><style>.cls-1{fill:gray;}.cls-1,.cls-2{stroke:#000;stroke-miterlimit:10;stroke-width:10px;}.cls-2{fill:#666;}</style></defs><g id="图层_2" data-name="图层 2"><g id="_1" data-name="1"><path class="cls-1" d="M104.86,214.93,5.06,170a.1.1,0,0,1-.06-.09V45.15a.1.1,0,0,1,.14-.09L105,90V214.84A.1.1,0,0,1,104.86,214.93Z"/><path class="cls-2" d="M105.14,214.93,205,170a.1.1,0,0,0,.06-.09V45.15a.1.1,0,0,0-.14-.09L105,90V214.84A.1.1,0,0,0,105.14,214.93Z"/><path class="cls-1" d="M5.22,44.9,105,5H105L204.87,44.9a.11.11,0,0,1,0,.19L105,90,5.21,45.09A.11.11,0,0,1,5.22,44.9Z"/></g></g></svg>