<svg xmlns="http://www.w3.org/2000/svg" viewBox="0 0 210.09 219.94"><defs><style>.cls-1{fill:gray;}.cls-1,.cls-2,.cls-3,.cls-4,.cls-5,.cls-6,.cls-7,.cls-8,.cls-9{stroke:#000;stroke-miterlimit:10;stroke-width:10px;}.cls-2{fill:#666;}.cls-3{fill:#999;}.cls-4{fill:#b3b3b3;}.cls-5{fill:#ccc;}.cls-6,.cls-7,.cls-8,.cls-9{fill:none;}.cls-7{stroke-dasharray:8.47 8.47;}.cls-8{stroke-dasharray:8.69 8.69;}.cls-9{stroke-dasharray:8;}</style></defs><g id="图层_2" data-name="图层 2"><g id="_3" data-name="3"><path class="cls-1" d="M104.86,214.93,5.06,170a.1.1,0,0,1-.06-.09V45.15a.1.1,0,0,1,.14-.09L105,90V214.84A.1.1,0,0,1,104.86,214.93Z"/><path class="cls-2" d="M105.14,214.93,205,170a.1.1,0,0,0,.06-.09V45.15a.1.1,0,0,0-.14-.09L105,90V214.84A.1.1,0,0,0,105.14,214.93Z"/><path class="cls-1" d="M5.22,44.9,105,5H105L204.87,44.9a.11.11,0,0,1,0,.19L105,90,5.21,45.09A.11.11,0,0,1,5.22,44.9Z"/><g id="in"><path class="cls-3" d="M105.11,187.42,28.28,152.85a.07.07,0,0,1,0-.07V56.72c0-.06.05-.1.1-.07l76.88,34.59v96.11A.08.08,0,0,1,105.11,187.42Z"/><path class="cls-4" d="M105.33,187.42l76.9-34.57a.08.08,0,0,0,0-.07V56.72a.07.07,0,0,0-.11-.07L105.22,91.24v96.11A.08.08,0,0,0,105.33,187.42Z"/><path class="cls-5" d="M28.4,56.53l76.79-30.71a.06.06,0,0,1,.06,0L182.1,56.53a.07.07,0,0,1,0,.14L105.22,91.24,28.4,56.67A.08.08,0,0,1,28.4,56.53Z"/><line class="cls-6" x1="29.28" y1="152.85" x2="32.88" y2="151.11"/><line class="cls-7" x1="40.51" y1="147.43" x2="97.7" y2="119.85"/><polyline class="cls-6" points="101.51 118.01 105.11 116.27 108.74 117.97"/><line class="cls-8" x1="116.61" y1="121.65" x2="175.67" y2="149.31"/><line class="cls-6" x1="179.6" y1="151.15" x2="183.23" y2="152.85"/><line class="cls-9" x1="105.05" y1="122.03" x2="106.19" y2="25.82"/></g></g></g></svg>